<svg width="3697" height="403" viewBox="0 0 3697 403" fill="none" xmlns="http://www.w3.org/2000/svg">
<path d="M452.566 85.1211V183.776H423.015V174.459C417.817 181.858 407.966 186.517 394.833 186.517C374.858 186.517 357.894 172.267 357.894 145.684V85.1211H387.445V141.3C387.445 153.632 395.106 159.387 404.683 159.387C415.628 159.387 423.015 153.084 423.015 139.107V85.1211H452.566Z" fill="white"/>
<path d="M471.172 58.8128C471.172 49.2213 479.107 41 488.958 41C498.808 41 506.743 49.2213 506.743 58.8128C506.743 68.4043 498.534 76.6255 488.958 76.6255C479.381 76.6255 471.172 68.4043 471.172 58.8128ZM474.182 85.1209H503.733V183.776H474.182V85.1209Z" fill="white"/>
<path d="M618.379 85.1211V183.776H588.829V174.459C583.63 181.858 573.78 186.517 560.646 186.517C540.672 186.517 523.707 172.267 523.707 145.684V85.1211H553.258V141.3C553.258 153.632 560.919 159.387 570.496 159.387C581.441 159.387 588.829 153.084 588.829 139.107V85.1211H618.379Z" fill="white"/>
<path d="M699.644 183.776L681.312 157.742L662.979 183.776H629.324L664.621 133.627L630.692 85.1211H664.621L681.859 109.511L699.097 85.1211H733.026L699.097 133.627L734.394 183.776H699.644V183.776Z" fill="white"/>
<path d="M460.228 222.142V320.797H430.677V311.48C424.11 318.879 414.533 323.538 401.399 323.538C375.679 323.538 354.337 300.792 354.337 271.469C354.337 242.147 375.679 219.401 401.399 219.401C414.533 219.401 424.11 224.06 430.677 231.459V222.142H460.228ZM430.95 271.469C430.95 256.671 421.1 247.354 407.419 247.354C393.738 247.354 383.888 256.671 383.888 271.469C383.888 286.268 393.738 295.585 407.419 295.585C421.1 295.585 430.95 286.268 430.95 271.469Z" fill="white"/>
<path d="M538.483 220.224V253.657C526.17 251.739 508.932 256.672 508.932 276.129V320.798H479.381V222.142H508.932V239.681C513.036 226.527 526.17 220.224 538.483 220.224Z" fill="white"/>
<path d="M647.657 222.142V315.864C647.657 349.023 621.936 363 595.669 363C575.148 363 558.183 355.326 548.88 339.158L574.053 324.634C577.884 331.485 583.63 336.966 596.49 336.966C610.171 336.966 618.653 329.841 618.653 315.864V306.821C612.086 315.042 602.783 319.701 589.923 319.701C562.014 319.701 541.492 296.681 541.492 269.551C541.492 242.421 562.014 219.401 589.923 219.401C602.783 219.401 612.086 224.06 618.653 232.281V222.142H647.657V222.142ZM618.927 269.551C618.927 255.849 609.076 246.532 595.122 246.532C581.167 246.532 571.317 255.849 571.317 269.551C571.317 283.253 581.167 292.571 595.122 292.571C609.076 292.571 618.927 283.253 618.927 269.551Z" fill="white"/>
<path d="M761.482 260.234V320.798H731.931V264.619C731.931 252.287 724.27 246.532 714.693 246.532C703.749 246.532 696.361 252.835 696.361 266.811V320.798H666.81V182.68H696.361V231.46C701.56 224.061 711.41 219.402 724.544 219.402C744.518 219.402 761.482 233.652 761.482 260.234Z" fill="white"/>
<path d="M870.656 222.142L837.001 317.783C826.056 349.024 808.545 361.63 780.909 360.26V332.581C794.59 332.581 801.157 328.197 805.535 316.139L766.407 222.142H798.968L820.858 282.431L839.464 222.142H870.656V222.142Z" fill="white"/>
<path d="M976 222.142V320.797H946.449V311.48C939.882 318.879 930.306 323.538 917.172 323.538C891.452 323.538 870.109 300.792 870.109 271.469C870.109 242.147 891.452 219.401 917.172 219.401C930.306 219.401 939.882 224.06 946.449 231.459V222.142H976ZM946.449 271.469C946.449 256.671 936.599 247.354 922.918 247.354C909.237 247.354 899.387 256.671 899.387 271.469C899.387 286.268 909.237 295.585 922.918 295.585C936.599 295.585 946.449 286.268 946.449 271.469Z" fill="white"/>
<path d="M158.426 210.358L191.807 267.085L158.426 323.538L125.318 267.085L158.426 210.358Z" fill="white"/>
<path d="M317.125 321.071H223L190.986 266.263H237.502L158.426 129.789L79.3496 266.263H125.865L94.125 321.071H0L158.426 45.9324L317.125 321.071Z" fill="white"/>
<path d="M1458.32 309.622L1458.2 309.745H1489.82L1489.94 309.622L1571.25 236.848L1698.22 355H1534.26L1583.82 310.601L1569.17 297.147L1504.59 355H1393V309.745L1633.03 93.2549H1603.11L1602.63 93.7442L1393 282.714V48H1502.88V94.2334L1457.71 134.718V93.2549H1435.73V184.132L1586.75 48H1698.22V94.7226L1458.32 309.622Z" fill="white"/>
<path d="M1869.32 293.856L1816.34 228.995L1867.79 165.672H1828.37L1784.35 222.073V114.399H1751.33V293.856H1784.35V235.661L1830.93 293.856H1869.32Z" fill="white"/>
<path d="M1937.47 297.445C1956.41 297.445 1972.28 291.036 1985.59 277.961C1998.65 264.887 2005.3 248.735 2005.3 229.764C2005.3 210.793 1998.65 194.898 1985.59 181.824C1972.28 168.749 1956.41 162.083 1937.47 162.083C1918.53 162.083 1902.41 168.749 1889.35 181.824C1876.3 194.898 1869.9 210.793 1869.9 229.764C1869.9 248.735 1876.3 264.887 1889.35 277.961C1902.41 291.036 1918.53 297.445 1937.47 297.445ZM1937.47 265.143C1927.49 265.143 1919.3 261.81 1912.65 255.145C1905.99 248.479 1902.92 240.019 1902.92 229.764C1902.92 219.51 1905.99 211.049 1912.65 204.384C1919.3 197.718 1927.49 194.386 1937.47 194.386C1947.2 194.386 1955.65 197.718 1962.3 204.384C1968.96 211.049 1972.28 219.51 1972.28 229.764C1972.28 240.019 1968.96 248.479 1962.3 255.145C1955.65 261.81 1947.2 265.143 1937.47 265.143Z" fill="white"/>
<path d="M2112.99 165.672V234.892C2112.99 245.659 2110.43 253.606 2105.31 258.734C2100.19 264.117 2093.28 266.681 2084.84 266.681C2077.16 266.681 2071.02 264.63 2066.41 260.016C2061.8 255.401 2059.5 248.992 2059.5 240.275V165.672H2026.48V244.377C2026.48 261.041 2030.83 274.116 2040.05 283.345C2049.26 292.831 2060.78 297.445 2074.85 297.445C2092.26 297.445 2104.8 291.549 2112.99 279.499V293.856H2146.01V165.672H2112.99Z" fill="white"/>
<path d="M2205.71 202.077C2205.71 199 2206.99 196.437 2209.8 194.386C2212.62 192.591 2216.2 191.566 2220.55 191.566C2230.02 191.566 2236.93 195.924 2241.03 204.64L2269.18 189.258C2264.06 180.542 2257.41 173.876 2248.96 169.262C2240.26 164.647 2230.79 162.083 2220.55 162.083C2206.73 162.083 2194.96 165.929 2185.74 173.107C2176.53 180.285 2171.92 190.284 2171.92 202.846C2171.92 211.306 2173.97 218.228 2178.58 223.868C2183.18 229.508 2188.56 233.353 2195.21 235.917C2201.61 238.481 2208.01 240.788 2214.67 242.326C2221.06 244.121 2226.44 246.172 2231.05 248.223C2235.65 250.274 2237.96 253.094 2237.96 256.426C2237.96 263.861 2232.07 267.45 2220.3 267.45C2207.24 267.45 2198.8 262.066 2195.21 250.786L2166.55 266.937C2176.02 287.447 2193.93 297.445 2220.3 297.445C2234.89 297.445 2247.17 294.112 2256.9 286.934C2266.62 279.756 2271.74 269.758 2271.74 256.426C2271.74 247.71 2269.44 240.532 2264.83 234.635C2260.23 228.995 2254.85 224.893 2248.45 222.33C2241.8 219.766 2235.4 217.715 2229 216.177C2222.34 214.639 2216.97 212.588 2212.36 210.537C2207.76 208.486 2205.71 205.666 2205.71 202.077Z" fill="white"/>
<path d="M2364.13 162.083C2346.73 162.083 2333.93 168.236 2325.99 180.029V114.399H2292.98V293.856H2325.99V224.637C2325.99 214.126 2328.55 206.178 2333.67 200.795C2338.79 195.667 2345.45 192.847 2354.15 192.847C2361.83 192.847 2367.97 195.155 2372.58 199.769C2377.18 204.384 2379.49 210.793 2379.49 219.253V293.856H2412.51V215.151C2412.51 198.744 2407.9 185.669 2398.68 176.184C2389.47 166.954 2377.95 162.083 2364.13 162.083Z" fill="white"/>
<path d="M2537.96 165.672V180.798C2527.98 168.493 2514.16 162.083 2496.24 162.083C2479.09 162.083 2464.5 168.749 2452.22 181.824C2439.93 194.898 2434.04 210.793 2434.04 229.764C2434.04 248.735 2439.93 264.887 2452.22 277.961C2464.5 291.036 2479.09 297.445 2496.24 297.445C2514.16 297.445 2527.98 291.292 2537.96 278.73V293.856H2570.98V165.672H2537.96ZM2502.38 265.912C2492.14 265.912 2483.7 262.579 2477.04 255.914C2470.39 249.248 2467.06 240.532 2467.06 229.764C2467.06 219.253 2470.39 210.537 2477.04 203.871C2483.7 197.206 2492.14 193.616 2502.38 193.616C2512.62 193.616 2521.07 197.206 2527.72 203.871C2534.38 210.537 2537.96 219.253 2537.96 229.764C2537.96 240.532 2534.38 249.248 2527.72 255.914C2521.07 262.579 2512.62 265.912 2502.38 265.912Z" fill="white"/>
<path d="M2742.46 162.083C2725.57 162.083 2712.77 168.236 2704.32 180.542C2696.64 168.236 2685.13 162.083 2669.51 162.083C2653.39 162.083 2641.61 167.98 2633.94 179.26V165.672H2600.92V293.856H2633.94V221.817C2633.94 212.588 2635.98 205.409 2640.33 200.282C2644.69 195.411 2650.57 192.847 2657.99 192.847C2664.65 192.847 2670.02 195.155 2673.86 199.257C2677.45 203.615 2679.49 209.511 2679.49 217.202V293.856H2712.51V221.817C2712.51 212.588 2714.56 205.409 2718.65 200.282C2722.75 195.411 2728.64 192.847 2736.32 192.847C2742.97 192.847 2748.35 195.155 2752.18 199.257C2755.77 203.615 2757.82 209.511 2757.82 217.202V293.856H2790.83V214.895C2790.83 199 2786.23 186.182 2777.52 176.44C2768.82 166.954 2757.05 162.083 2742.46 162.083Z" fill="white"/>
<path d="M2893.36 162.083C2875.44 162.083 2861.62 168.493 2851.89 180.798V114.399H2818.88V293.856H2851.89V278.73C2861.62 291.292 2875.44 297.445 2893.36 297.445C2910.51 297.445 2925.1 291.036 2937.38 277.961C2949.67 264.887 2955.81 248.735 2955.81 229.764C2955.81 210.793 2949.67 194.898 2937.38 181.824C2925.1 168.749 2910.51 162.083 2893.36 162.083ZM2887.21 265.912C2876.98 265.912 2868.53 262.579 2861.88 255.914C2855.22 249.248 2851.89 240.532 2851.89 229.764C2851.89 219.253 2855.22 210.537 2861.88 203.871C2868.53 197.206 2876.98 193.616 2887.21 193.616C2897.45 193.616 2905.9 197.206 2912.55 203.871C2919.21 210.537 2922.79 219.253 2922.79 229.764C2922.79 240.532 2919.21 249.248 2912.55 255.914C2905.9 262.579 2897.45 265.912 2887.21 265.912Z" fill="white"/>
<path d="M3050.25 162.083C3032.84 162.083 3020.05 168.236 3012.11 180.029V114.399H2979.09V293.856H3012.11V224.637C3012.11 214.126 3014.67 206.178 3019.79 200.795C3024.91 195.667 3031.56 192.847 3040.27 192.847C3047.95 192.847 3054.09 195.155 3058.7 199.769C3063.3 204.384 3065.61 210.793 3065.61 219.253V293.856H3098.62V215.151C3098.62 198.744 3094.02 185.669 3084.8 176.184C3075.59 166.954 3064.07 162.083 3050.25 162.083Z" fill="white"/>
<path d="M3224.08 165.672V180.798C3214.1 168.493 3200.27 162.083 3182.36 162.083C3165.21 162.083 3150.62 168.749 3138.33 181.824C3126.05 194.898 3120.16 210.793 3120.16 229.764C3120.16 248.735 3126.05 264.887 3138.33 277.961C3150.62 291.036 3165.21 297.445 3182.36 297.445C3200.27 297.445 3214.1 291.292 3224.08 278.73V293.856H3257.1V165.672H3224.08ZM3188.5 265.912C3178.26 265.912 3169.82 262.579 3163.16 255.914C3156.51 249.248 3153.18 240.532 3153.18 229.764C3153.18 219.253 3156.51 210.537 3163.16 203.871C3169.82 197.206 3178.26 193.616 3188.5 193.616C3198.74 193.616 3207.18 197.206 3213.84 203.871C3220.49 210.537 3224.08 219.253 3224.08 229.764C3224.08 240.532 3220.49 249.248 3213.84 255.914C3207.18 262.579 3198.74 265.912 3188.5 265.912Z" fill="white"/>
<path d="M3306.23 297.189C3312.12 297.189 3317.24 295.138 3321.59 290.78C3325.68 286.678 3327.99 281.55 3327.99 275.398C3327.99 269.501 3325.68 264.374 3321.59 260.016C3317.24 255.914 3312.12 253.606 3306.23 253.606C3300.09 253.606 3294.97 255.914 3290.87 260.016C3286.52 264.374 3284.48 269.501 3284.48 275.398C3284.48 281.55 3286.52 286.678 3290.87 290.78C3294.97 295.138 3300.09 297.189 3306.23 297.189Z" fill="white"/>
<path d="M3430 162.083C3412.09 162.083 3398.27 168.493 3388.54 180.798V165.672H3355.52V345.129H3388.54V278.73C3398.27 291.292 3412.09 297.445 3430 297.445C3447.15 297.445 3461.74 291.036 3474.03 277.961C3486.31 264.887 3492.46 248.735 3492.46 229.764C3492.46 210.793 3486.31 194.898 3474.03 181.824C3461.74 168.749 3447.15 162.083 3430 162.083ZM3423.86 265.912C3413.62 265.912 3405.18 262.579 3398.52 255.914C3391.87 249.248 3388.54 240.532 3388.54 229.764C3388.54 219.253 3391.87 210.537 3398.52 203.871C3405.18 197.206 3413.62 193.616 3423.86 193.616C3434.1 193.616 3442.55 197.206 3449.2 203.871C3455.86 210.537 3459.44 219.253 3459.44 229.764C3459.44 240.532 3455.86 249.248 3449.2 255.914C3442.55 262.579 3434.1 265.912 3423.86 265.912Z" fill="white"/>
<path d="M3532.12 150.29C3537.75 150.29 3542.36 148.496 3546.46 144.394C3550.55 140.292 3552.6 135.678 3552.6 130.037C3552.6 124.654 3550.55 119.783 3546.46 115.681C3542.36 111.579 3537.75 109.528 3532.12 109.528C3526.49 109.528 3521.88 111.579 3517.79 115.681C3513.69 119.783 3511.9 124.654 3511.9 130.037C3511.9 135.678 3513.69 140.292 3517.79 144.394C3521.88 148.496 3526.49 150.29 3532.12 150.29ZM3515.74 293.856H3548.76V165.672H3515.74V293.856Z" fill="white"/>
<path d="M3696.97 293.856L3650.13 228.226L3694.93 165.672H3657.04L3631.19 201.82L3605.34 165.672H3567.21L3612 228.482L3565.16 293.856H3603.29L3631.19 254.888L3658.84 293.856H3696.97Z" fill="white"/>
<rect x="1176" width="17" height="403" rx="8.5" fill="white"/>
</svg>
