<svg width="1346" height="477" viewBox="0 0 1346 477" fill="none" xmlns="http://www.w3.org/2000/svg">
<rect x="239" y="52" width="187" height="187" fill="#F6C667"/>
<rect x="68" y="239" width="358" height="187" fill="#C70039"/>
<path d="M551.12 206L521.6 162.92L549.92 122H528.08L502.4 158.48V122H483.2V206H502.4V167.12L529.28 206H551.12ZM591.249 207.68C615.369 207.68 634.929 188.72 634.929 164C634.929 139.28 615.369 120.32 591.249 120.32C567.129 120.32 547.569 139.28 547.569 164C547.569 188.72 567.129 207.68 591.249 207.68ZM591.249 188.96C577.569 188.96 566.769 179 566.769 164C566.769 149 577.569 139.04 591.249 139.04C604.929 139.04 615.729 149 615.729 164C615.729 179 604.929 188.96 591.249 188.96ZM676.953 207.68C695.433 207.68 709.353 196.88 709.353 178.88V122H690.153V177.2C690.153 183.56 687.153 188.96 676.953 188.96C666.753 188.96 663.753 183.56 663.753 177.2V122H644.553V178.88C644.553 196.88 658.473 207.68 676.953 207.68ZM752.6 207.68C770.84 207.68 783.8 198.08 783.8 181.88C783.8 164.12 769.52 159.68 756.8 155.84C743.72 151.88 741.68 149.24 741.68 145.4C741.68 142.04 744.68 139.04 750.68 139.04C758.36 139.04 762.32 142.76 765.2 148.76L781.4 139.28C775.28 126.92 764.48 120.32 750.68 120.32C736.16 120.32 722.48 129.68 722.48 145.88C722.48 161.96 734.72 167.96 747.2 171.44C759.8 174.92 764.6 176.96 764.6 182.12C764.6 185.36 762.32 188.96 753.2 188.96C743.72 188.96 738.56 184.28 735.56 177.32L719 186.92C723.68 199.28 734.96 207.68 752.6 207.68ZM838.409 122V154.16H812.009V122H792.809V206H812.009V172.64H838.409V206H857.609V122H838.409ZM925.428 206H946.428L917.868 122H893.388L864.828 206H885.828L890.028 192.8H921.228L925.428 206ZM895.788 174.8L905.628 143.96L915.468 174.8H895.788ZM1037.59 122H1018.39L995.591 159.32L972.791 122H953.591V206H972.791V157.16L994.511 192.8H996.671L1018.39 157.16V206H1037.59V122ZM1104.11 162.44C1108.67 158.48 1111.43 152.96 1111.43 146C1111.43 131.48 1099.55 122 1084.91 122H1052.03V206H1087.31C1102.31 206 1114.43 196.28 1114.43 181.4C1114.43 172.88 1110.35 166.4 1104.11 162.44ZM1084.91 140C1089.35 140 1092.23 143.12 1092.23 147.44C1092.23 151.76 1089.23 154.88 1084.91 154.88H1071.23V140H1084.91ZM1087.31 188H1071.23V171.92H1087.31C1092.11 171.92 1095.23 175.28 1095.23 179.96C1095.23 184.64 1092.11 188 1087.31 188ZM1169.58 122V154.16H1143.18V122H1123.98V206H1143.18V172.64H1169.58V206H1188.78V122H1169.58ZM1256.6 206H1277.6L1249.04 122H1224.56L1196 206H1217L1221.2 192.8H1252.4L1256.6 206ZM1226.96 174.8L1236.8 143.96L1246.64 174.8H1226.96Z" fill="white"/>
<path d="M523.04 262H492.68L477.92 346H497.12L501.8 319.6H514.16C523.64 319.6 531.44 317.08 537.56 312.04C543.68 307 547.4 300.28 548.6 292C549.8 283.48 548 276.4 543.2 270.64C538.4 264.88 531.68 262 523.04 262ZM529.4 290.8C528.68 294.16 527.24 296.8 524.96 298.72C522.56 300.64 519.68 301.6 516.08 301.6H504.92L508.76 280H519.92C523.76 280 526.4 281.08 527.96 283C529.52 284.92 530 287.56 529.4 290.8ZM563.461 262L548.701 346H567.901L582.661 262H563.461ZM661.894 262H639.094L622.534 284.2L613.174 262H592.294L609.094 302.2L576.334 346H599.134L617.254 321.76L627.454 346H648.334L630.694 303.76L661.894 262Z" fill="white"/>
</svg>
