<svg width="2304" height="590" viewBox="0 0 2304 590" fill="none" xmlns="http://www.w3.org/2000/svg">
<path d="M65.3174 403.622L65.1953 403.745H96.8162L96.9383 403.622L178.249 330.848L305.221 449H141.256L190.824 404.601L176.174 391.147L111.589 449H0V403.745L240.026 187.255H210.114L209.626 187.744L0 376.714V142H109.88V188.233L64.7069 228.718V187.255H42.731V278.132L193.754 142H305.221V188.723L65.3174 403.622Z" fill="white"/>
<path d="M476.324 387.856L423.343 322.995L474.789 259.672H435.372L391.349 316.073V208.399H358.331V387.856H391.349V329.661L437.932 387.856H476.324Z" fill="white"/>
<path d="M544.473 391.445C563.414 391.445 579.283 385.036 592.592 371.961C605.646 358.887 612.3 342.735 612.3 323.764C612.3 304.793 605.646 288.898 592.592 275.824C579.283 262.749 563.414 256.083 544.473 256.083C525.533 256.083 509.408 262.749 496.355 275.824C483.301 288.898 476.902 304.793 476.902 323.764C476.902 342.735 483.301 358.887 496.355 371.961C509.408 385.036 525.533 391.445 544.473 391.445ZM544.473 359.143C534.491 359.143 526.301 355.81 519.646 349.145C512.991 342.479 509.92 334.019 509.92 323.764C509.92 313.51 512.991 305.049 519.646 298.384C526.301 291.718 534.491 288.386 544.473 288.386C554.199 288.386 562.646 291.718 569.3 298.384C575.955 305.049 579.283 313.51 579.283 323.764C579.283 334.019 575.955 342.479 569.3 349.145C562.646 355.81 554.199 359.143 544.473 359.143Z" fill="white"/>
<path d="M719.991 259.672V328.892C719.991 339.659 717.432 347.606 712.313 352.734C707.194 358.117 700.283 360.681 691.837 360.681C684.158 360.681 678.016 358.63 673.408 354.016C668.801 349.401 666.498 342.992 666.498 334.275V259.672H633.48V338.377C633.48 355.041 637.831 368.116 647.046 377.345C656.26 386.831 667.778 391.445 681.855 391.445C699.259 391.445 711.801 385.549 719.991 373.499V387.856H753.009V259.672H719.991Z" fill="white"/>
<path d="M812.708 296.077C812.708 293 813.987 290.437 816.803 288.386C819.618 286.591 823.202 285.566 827.553 285.566C837.023 285.566 843.934 289.924 848.029 298.64L876.183 283.258C871.064 274.542 864.41 267.876 855.963 263.262C847.261 258.647 837.791 256.083 827.553 256.083C813.731 256.083 801.958 259.929 792.744 267.107C783.529 274.285 778.922 284.284 778.922 296.846C778.922 305.306 780.97 312.228 785.577 317.868C790.184 323.508 795.559 327.353 802.214 329.917C808.612 332.481 815.011 334.788 821.666 336.326C828.065 338.121 833.44 340.172 838.047 342.223C842.654 344.274 844.957 347.094 844.957 350.426C844.957 357.861 839.071 361.45 827.297 361.45C814.243 361.45 805.797 356.066 802.214 344.786L773.547 360.937C783.017 381.447 800.934 391.445 827.297 391.445C841.886 391.445 854.172 388.112 863.898 380.934C873.624 373.756 878.743 363.758 878.743 350.426C878.743 341.71 876.439 334.532 871.832 328.635C867.225 322.995 861.85 318.893 855.451 316.33C848.797 313.766 842.398 311.715 835.999 310.177C829.344 308.639 823.969 306.588 819.362 304.537C814.755 302.486 812.708 299.666 812.708 296.077Z" fill="white"/>
<path d="M971.131 256.083C953.726 256.083 940.929 262.236 932.995 274.029V208.399H899.977V387.856H932.995V318.637C932.995 308.126 935.554 300.178 940.673 294.795C945.792 289.667 952.447 286.847 961.149 286.847C968.828 286.847 974.97 289.155 979.578 293.769C984.185 298.384 986.488 304.793 986.488 313.253V387.856H1019.51V309.151C1019.51 292.744 1014.9 279.669 1005.68 270.184C996.47 260.954 984.952 256.083 971.131 256.083Z" fill="white"/>
<path d="M1144.96 259.672V274.798C1134.98 262.493 1121.16 256.083 1103.24 256.083C1086.09 256.083 1071.5 262.749 1059.22 275.824C1046.93 288.898 1041.04 304.793 1041.04 323.764C1041.04 342.735 1046.93 358.887 1059.22 371.961C1071.5 385.036 1086.09 391.445 1103.24 391.445C1121.16 391.445 1134.98 385.292 1144.96 372.73V387.856H1177.98V259.672H1144.96ZM1109.38 359.912C1099.14 359.912 1090.7 356.579 1084.04 349.914C1077.39 343.248 1074.06 334.532 1074.06 323.764C1074.06 313.253 1077.39 304.537 1084.04 297.871C1090.7 291.206 1099.14 287.616 1109.38 287.616C1119.62 287.616 1128.07 291.206 1134.72 297.871C1141.38 304.537 1144.96 313.253 1144.96 323.764C1144.96 334.532 1141.38 343.248 1134.72 349.914C1128.07 356.579 1119.62 359.912 1109.38 359.912Z" fill="white"/>
<path d="M1349.46 256.083C1332.57 256.083 1319.77 262.236 1311.32 274.542C1303.64 262.236 1292.13 256.083 1276.51 256.083C1260.39 256.083 1248.61 261.98 1240.94 273.26V259.672H1207.92V387.856H1240.94V315.817C1240.94 306.588 1242.98 299.409 1247.33 294.282C1251.69 289.411 1257.57 286.847 1264.99 286.847C1271.65 286.847 1277.02 289.155 1280.86 293.257C1284.45 297.615 1286.49 303.511 1286.49 311.202V387.856H1319.51V315.817C1319.51 306.588 1321.56 299.409 1325.65 294.282C1329.75 289.411 1335.64 286.847 1343.32 286.847C1349.97 286.847 1355.35 289.155 1359.18 293.257C1362.77 297.615 1364.82 303.511 1364.82 311.202V387.856H1397.83V308.895C1397.83 293 1393.23 280.182 1384.52 270.44C1375.82 260.954 1364.05 256.083 1349.46 256.083Z" fill="white"/>
<path d="M1500.36 256.083C1482.44 256.083 1468.62 262.493 1458.89 274.798V208.399H1425.88V387.856H1458.89V372.73C1468.62 385.292 1482.44 391.445 1500.36 391.445C1517.51 391.445 1532.1 385.036 1544.38 371.961C1556.67 358.887 1562.81 342.735 1562.81 323.764C1562.81 304.793 1556.67 288.898 1544.38 275.824C1532.1 262.749 1517.51 256.083 1500.36 256.083ZM1494.21 359.912C1483.98 359.912 1475.53 356.579 1468.88 349.914C1462.22 343.248 1458.89 334.532 1458.89 323.764C1458.89 313.253 1462.22 304.537 1468.88 297.871C1475.53 291.206 1483.98 287.616 1494.21 287.616C1504.45 287.616 1512.9 291.206 1519.55 297.871C1526.21 304.537 1529.79 313.253 1529.79 323.764C1529.79 334.532 1526.21 343.248 1519.55 349.914C1512.9 356.579 1504.45 359.912 1494.21 359.912Z" fill="white"/>
<path d="M1657.25 256.083C1639.84 256.083 1627.05 262.236 1619.11 274.029V208.399H1586.09V387.856H1619.11V318.637C1619.11 308.126 1621.67 300.178 1626.79 294.795C1631.91 289.667 1638.56 286.847 1647.27 286.847C1654.95 286.847 1661.09 289.155 1665.7 293.769C1670.3 298.384 1672.61 304.793 1672.61 313.253V387.856H1705.62V309.151C1705.62 292.744 1701.02 279.669 1691.8 270.184C1682.59 260.954 1671.07 256.083 1657.25 256.083Z" fill="white"/>
<path d="M1831.08 259.672V274.798C1821.1 262.493 1807.27 256.083 1789.36 256.083C1772.21 256.083 1757.62 262.749 1745.33 275.824C1733.05 288.898 1727.16 304.793 1727.16 323.764C1727.16 342.735 1733.05 358.887 1745.33 371.961C1757.62 385.036 1772.21 391.445 1789.36 391.445C1807.27 391.445 1821.1 385.292 1831.08 372.73V387.856H1864.1V259.672H1831.08ZM1795.5 359.912C1785.26 359.912 1776.82 356.579 1770.16 349.914C1763.51 343.248 1760.18 334.532 1760.18 323.764C1760.18 313.253 1763.51 304.537 1770.16 297.871C1776.82 291.206 1785.26 287.616 1795.5 287.616C1805.74 287.616 1814.18 291.206 1820.84 297.871C1827.49 304.537 1831.08 313.253 1831.08 323.764C1831.08 334.532 1827.49 343.248 1820.84 349.914C1814.18 356.579 1805.74 359.912 1795.5 359.912Z" fill="white"/>
<path d="M1913.23 391.189C1919.12 391.189 1924.24 389.138 1928.59 384.78C1932.68 380.678 1934.99 375.55 1934.99 369.398C1934.99 363.501 1932.68 358.374 1928.59 354.016C1924.24 349.914 1919.12 347.606 1913.23 347.606C1907.09 347.606 1901.97 349.914 1897.87 354.016C1893.52 358.374 1891.48 363.501 1891.48 369.398C1891.48 375.55 1893.52 380.678 1897.87 384.78C1901.97 389.138 1907.09 391.189 1913.23 391.189Z" fill="white"/>
<path d="M2037 256.083C2019.09 256.083 2005.27 262.493 1995.54 274.798V259.672H1962.52V439.129H1995.54V372.73C2005.27 385.292 2019.09 391.445 2037 391.445C2054.15 391.445 2068.74 385.036 2081.03 371.961C2093.31 358.887 2099.46 342.735 2099.46 323.764C2099.46 304.793 2093.31 288.898 2081.03 275.824C2068.74 262.749 2054.15 256.083 2037 256.083ZM2030.86 359.912C2020.62 359.912 2012.18 356.579 2005.52 349.914C1998.87 343.248 1995.54 334.532 1995.54 323.764C1995.54 313.253 1998.87 304.537 2005.52 297.871C2012.18 291.206 2020.62 287.616 2030.86 287.616C2041.1 287.616 2049.55 291.206 2056.2 297.871C2062.86 304.537 2066.44 313.253 2066.44 323.764C2066.44 334.532 2062.86 343.248 2056.2 349.914C2049.55 356.579 2041.1 359.912 2030.86 359.912Z" fill="white"/>
<path d="M2139.12 244.29C2144.75 244.29 2149.36 242.496 2153.46 238.394C2157.55 234.292 2159.6 229.678 2159.6 224.037C2159.6 218.654 2157.55 213.783 2153.46 209.681C2149.36 205.579 2144.75 203.528 2139.12 203.528C2133.49 203.528 2128.88 205.579 2124.79 209.681C2120.69 213.783 2118.9 218.654 2118.9 224.037C2118.9 229.678 2120.69 234.292 2124.79 238.394C2128.88 242.496 2133.49 244.29 2139.12 244.29ZM2122.74 387.856H2155.76V259.672H2122.74V387.856Z" fill="white"/>
<path d="M2303.97 387.856L2257.13 322.226L2301.93 259.672H2264.04L2238.19 295.82L2212.34 259.672H2174.21L2219 322.482L2172.16 387.856H2210.29L2238.19 348.888L2265.84 387.856H2303.97Z" fill="white"/>
</svg>
